<?xml version="1.0" encoding="utf-8"?>
<svg version="1.1" xmlns:xlink="http://www.w3.org/1999/xlink" width="134px" height="141px" xmlns="http://www.w3.org/2000/svg">
  <g transform="matrix(1 0 0 1 -951 -2474 )">
    <path d="M 951 2474  L 1085 2474  L 1085 2615  L 951 2615  L 951 2474  " fill-rule="nonzero" fill="#cccccc" stroke="none" />
    <path d="M 960 2483  L 1076 2483  L 1076 2606  L 960 2606  L 960 2483  " fill-rule="nonzero" fill="#ffffff" stroke="none" />
    <path d="M 1030.73 2515.25  C 1025.102 2515.25  1020.68 2510.828  1020.68 2505.2  C 1020.68 2499.572  1025.102 2495.15  1030.73 2495.15  C 1036.358 2495.15  1040.78 2499.572  1040.78 2505.2  C 1040.78 2510.828  1036.358 2515.25  1030.73 2515.25  " fill-rule="nonzero" fill="#cccccc" stroke="none" />
    <path d="M 964 2603  L 964 2539.2  L 991.25 2510.2  L 1029.4 2533.4  L 1051.2 2527.6  L 1073 2533.4  L 1073 2603  L 964 2603  " fill-rule="nonzero" fill="#169bd5" stroke="none" />
  </g>
</svg>