<?xml version="1.0" encoding="utf-8"?>
<svg version="1.1" xmlns:xlink="http://www.w3.org/1999/xlink" width="300px" height="170px" xmlns="http://www.w3.org/2000/svg">
  <g transform="matrix(1 0 0 1 -336 -356 )">
    <path d="M 336 356  L 636 356  L 636 526  L 336 526  L 336 356  " fill-rule="nonzero" fill="#cccccc" stroke="none" />
    <path d="M 348 368  L 624 368  L 624 514  L 348 514  L 348 368  " fill-rule="nonzero" fill="#ffffff" stroke="none" />
    <path d="M 504.75 407  C 497.61 407  492 401.39  492 394.25  C 492 387.11  497.61 381.5  504.75 381.5  C 511.89 381.5  517.5 387.11  517.5 394.25  C 517.5 401.39  511.89 407  504.75 407  " fill-rule="nonzero" fill="#cccccc" stroke="none" />
    <path d="M 353 510  L 353 434.65  L 419.75 400.4  L 513.2 463.42  L 566.6 420.95  L 620 463.42  L 620 510  L 353 510  " fill-rule="nonzero" fill="#169bd5" stroke="none" />
  </g>
</svg>