<?xml version="1.0" encoding="utf-8"?>
<svg version="1.1" xmlns:xlink="http://www.w3.org/1999/xlink" width="35px" height="35px" viewBox="56 478  35 35" xmlns="http://www.w3.org/2000/svg">
  <path d="M 73.5 478  C 83.3 478  91 485.7  91 495.5  C 91 505.3  83.3 513  73.5 513  C 63.7 513  56 505.3  56 495.5  C 56 485.7  63.7 478  73.5 478  Z " fill-rule="nonzero" fill="#ffffff" stroke="none" />
  <path d="M 73.5 478.5  C 83.02 478.5  90.5 485.98  90.5 495.5  C 90.5 505.02  83.02 512.5  73.5 512.5  C 63.98 512.5  56.5 505.02  56.5 495.5  C 56.5 485.98  63.98 478.5  73.5 478.5  Z " stroke-width="1" stroke="#797979" fill="none" />
  <path d="M 73.5 504.25  C 68.6 504.25  64.75 500.4  64.75 495.5  C 64.75 490.6  68.6 486.75  73.5 486.75  C 78.4 486.75  82.25 490.6  82.25 495.5  C 82.25 500.4  78.4 504.25  73.5 504.25  " fill-rule="nonzero" fill="#797979" stroke="none" />
</svg>