<?xml version="1.0" encoding="utf-8"?>
<svg version="1.1" xmlns:xlink="http://www.w3.org/1999/xlink" width="35px" height="35px" viewBox="56 638  35 35" xmlns="http://www.w3.org/2000/svg">
  <path d="M 73.5 638  C 83.3 638  91 645.7  91 655.5  C 91 665.3  83.3 673  73.5 673  C 63.7 673  56 665.3  56 655.5  C 56 645.7  63.7 638  73.5 638  Z " fill-rule="nonzero" fill="#ffffff" stroke="none" />
  <path d="M 73.5 638.5  C 83.02 638.5  90.5 645.98  90.5 655.5  C 90.5 665.02  83.02 672.5  73.5 672.5  C 63.98 672.5  56.5 665.02  56.5 655.5  C 56.5 645.98  63.98 638.5  73.5 638.5  Z " stroke-width="1" stroke="#797979" fill="none" />
  <path d="M 73.5 664.25  C 68.6 664.25  64.75 660.4  64.75 655.5  C 64.75 650.6  68.6 646.75  73.5 646.75  C 78.4 646.75  82.25 650.6  82.25 655.5  C 82.25 660.4  78.4 664.25  73.5 664.25  " fill-rule="nonzero" fill="#797979" stroke="none" />
</svg>